<svg xmlns="http://www.w3.org/2000/svg" viewBox="0 0 268 60" width="268" height="60"><style>@media (prefers-reduced-motion:reduce){*{animation:none!important}}</style><rect x="1" y="1" width="267" height="58" rx="29" fill="#0e0e0d" stroke="#2a2a28" stroke-width="2"/><path fill="#f4f4ef" d="M33.1 41V16.9H39.4Q41.4 16.9 42.6 17.8Q43.8 18.7 44.3 20.4Q44.8 22 44.8 24.3Q44.8 26.5 44.3 28.1Q43.9 29.7 42.8 30.6Q41.7 31.5 39.8 31.5H37.8V41ZM37.8 27.2H38.1Q39.4 27.2 39.7 26.4Q40 25.6 40 24.2Q40 22.8 39.7 22.1Q39.4 21.3 38.3 21.3H37.8ZM47.8 41V16.9H55.2Q57 16.9 58 17.8Q58.9 18.6 59.2 20.1Q59.5 21.6 59.5 23.7Q59.5 25.6 59 26.8Q58.5 28 57.2 28.4Q58.3 28.7 58.8 29.6Q59.2 30.5 59.2 31.9V41H54.5V31.6Q54.5 30.5 54 30.3Q53.6 30 52.7 30V41ZM52.7 25.9H53.8Q54.8 25.9 54.8 23.7Q54.8 22.3 54.6 21.8Q54.4 21.4 53.8 21.4H52.7ZM68.4 41.2Q65.5 41.2 64 39.5Q62.4 37.7 62.4 34.4V23Q62.4 19.9 64 18.3Q65.5 16.7 68.4 16.7Q71.3 16.7 72.8 18.3Q74.3 19.9 74.3 23V34.4Q74.3 37.7 72.8 39.5Q71.3 41.2 68.4 41.2ZM68.4 36.8Q69.5 36.8 69.5 34.7V22.9Q69.5 21.1 68.4 21.1Q67.2 21.1 67.2 23V34.7Q67.2 35.8 67.5 36.3Q67.8 36.8 68.4 36.8ZM83.1 41.2Q81.5 41.2 80.1 40.6Q78.8 40 78 38.7Q77.2 37.5 77.2 35.7V29.7H82V35.4Q82 36 82.2 36.4Q82.5 36.8 83 36.8Q84.1 36.8 84.1 35.5V16.9H89V35Q89 36.9 88.2 38.3Q87.5 39.7 86.1 40.5Q84.8 41.2 83.1 41.2ZM92.3 41V16.9H101.9V21.6H97.2V26.3H101.7V30.8H97.2V36.3H102.2V41ZM110.9 41.2Q108.3 41.2 106.7 39.6Q105.1 38 105.1 35V23.9Q105.1 20.4 106.5 18.6Q107.9 16.7 111 16.7Q112.8 16.7 114.1 17.3Q115.4 18 116.2 19.2Q117 20.5 117 22.4V26.5H112.2V23Q112.2 21.9 111.9 21.5Q111.6 21.1 111 21.1Q110.4 21.1 110.1 21.6Q109.9 22.1 109.9 22.9V35Q109.9 36 110.2 36.4Q110.5 36.8 111 36.8Q111.7 36.8 111.9 36.3Q112.2 35.8 112.2 35V30.6H117V35.2Q117 38.4 115.4 39.8Q113.8 41.2 110.9 41.2ZM122.2 41V21.6H119.3V16.9H129.8V21.6H127V41ZM142.6 41 140 16.9H144.7L146.1 32.1L147.4 16.9H151.9L153.2 32.1L154.5 16.9H159.2L156.6 41H150.8L149.6 29.4L148.5 41ZM162.2 41V16.9H171.8V21.6H167.1V26.3H171.6V30.8H167.1V36.3H172.1V41ZM175.2 41V16.9H181.7Q184.3 16.9 185.5 18.2Q186.7 19.5 186.7 22.4V23.5Q186.7 25.2 186.1 26.2Q185.5 27.3 184.3 27.6Q185.9 28 186.5 29.5Q187 31 187 33.2Q187 35.6 186.6 37.3Q186.1 39.1 185 40Q183.8 41 181.7 41ZM179.9 26H180.9Q181.6 26 181.8 25.5Q181.9 25 181.9 24.2V21.8Q181.9 20.7 180.9 20.7H179.9ZM180.4 36.8Q182.3 36.8 182.3 35V32Q182.3 31 181.9 30.4Q181.6 29.8 180.8 29.8H179.9V36.7Q180.2 36.8 180.4 36.8ZM195.8 41.2Q192.5 41.2 191.1 39.6Q189.6 37.9 189.6 34.4V32H194.4V35Q194.4 35.8 194.6 36.3Q194.9 36.8 195.5 36.8Q196.2 36.8 196.4 36.4Q196.7 36 196.7 35.1Q196.7 34 196.4 33.3Q196.2 32.6 195.7 31.9Q195.1 31.2 194.2 30.3L192 28.2Q189.6 26 189.6 23Q189.6 19.9 191 18.3Q192.5 16.7 195.2 16.7Q198.5 16.7 199.9 18.5Q201.3 20.2 201.3 23.8H196.4V22.2Q196.4 21.7 196.1 21.4Q195.8 21.1 195.3 21.1Q194.7 21.1 194.5 21.5Q194.2 21.8 194.2 22.3Q194.2 22.8 194.5 23.4Q194.8 24 195.6 24.7L198.3 27.4Q199.2 28.2 199.9 29.1Q200.6 30 201 31.1Q201.4 32.3 201.4 34Q201.4 37.4 200.2 39.3Q198.9 41.2 195.8 41.2ZM204.3 41V16.9H208.9V41ZM214.4 41V21.6H211.6V16.9H222.1V21.6H219.2V41ZM224.9 41V16.9H234.6V21.6H229.8V26.3H234.4V30.8H229.8V36.3H234.9V41Z"/></svg>