<svg xmlns="http://www.w3.org/2000/svg" viewBox="0 0 1280 460" width="1280" height="460"><style>.dt{animation:bl 1.4s infinite}@keyframes bl{50%{opacity:.2}}@media (prefers-reduced-motion:reduce){*{animation:none!important}}</style><rect width="1280" height="460" rx="28" fill="#f1f1ea"/><clipPath id="p"><rect x="660" y="28" width="572" height="404" rx="22"/></clipPath><rect x="48" y="44" width="235" height="48" rx="24" fill="none" stroke="#cfcfc4" stroke-width="2"/><circle class="dt" cx="76" cy="68" r="6" fill="#0a0a0a"/><path fill="#0a0a0a" d="M97 78V55.7H103.8Q105.6 55.7 106.4 56.4Q107.3 57.2 107.6 58.6Q107.9 60 107.9 61.9Q107.9 63.7 107.4 64.8Q107 65.9 105.7 66.3Q106.8 66.6 107.2 67.4Q107.6 68.2 107.6 69.5V78H103.2V69.3Q103.2 68.3 102.8 68Q102.4 67.8 101.5 67.8V78ZM101.5 63.9H102.6Q103.5 63.9 103.5 61.9Q103.5 60.6 103.3 60.2Q103.1 59.8 102.6 59.8H101.5ZM110.9 78V55.7H119.8V60H115.4V64.3H119.6V68.5H115.4V73.6H120.1V78ZM123.1 78V55.7H127.6V74.2H132.1V78ZM134.9 78V55.7H143.9V60H139.5V64.3H143.7V68.5H139.5V73.6H144.1V78ZM146.5 78 148.7 55.7H156.2L158.4 78H154.1L153.8 74.4H151.1L150.9 78ZM151.4 70.8H153.5L152.5 59.5H152.3ZM166.5 78.2Q163.5 78.2 162.1 76.7Q160.8 75.2 160.8 71.8V69.6H165.2V72.4Q165.2 73.2 165.4 73.7Q165.7 74.1 166.3 74.1Q166.9 74.1 167.1 73.7Q167.3 73.4 167.3 72.6Q167.3 71.5 167.1 70.8Q166.9 70.2 166.4 69.5Q165.9 68.9 165 68.1L163 66.2Q160.8 64 160.8 61.3Q160.8 58.4 162.1 57Q163.4 55.5 165.9 55.5Q169 55.5 170.3 57.1Q171.6 58.7 171.6 62.1H167.1V60.5Q167.1 60.1 166.8 59.8Q166.5 59.6 166.1 59.6Q165.6 59.6 165.3 59.9Q165.1 60.2 165.1 60.6Q165.1 61.1 165.3 61.6Q165.6 62.2 166.3 62.9L168.9 65.4Q169.7 66.1 170.3 66.9Q171 67.8 171.4 68.8Q171.8 69.9 171.8 71.5Q171.8 74.6 170.6 76.4Q169.4 78.2 166.5 78.2ZM174.7 78V55.7H183.7V60H179.3V64.3H183.5V68.5H179.3V73.6H184V78ZM196.6 78 193.8 55.6H198.1L199.7 70.9L201.2 55.6H205.4L202.7 78ZM213.7 78.3Q211.1 78.3 209.5 77Q207.8 75.8 207.8 73.1V69.8H212.5V71.7Q212.5 72.3 212.5 72.9Q212.6 73.4 212.9 73.8Q213.1 74.1 213.7 74.1Q214.4 74.1 214.6 73.7Q214.8 73.2 214.8 72.4V68Q214.8 67.5 214.8 66.9Q214.7 66.4 214.5 66Q214.2 65.7 213.7 65.7Q212.4 65.7 212.4 67.5H208.3V55.6H219V59.8H212.6V63Q212.9 62.6 213.5 62.3Q214 62 214.8 62Q216.3 62 217.3 62.5Q218.2 63.1 218.7 64.2Q219.3 65.2 219.4 66.6Q219.6 67.9 219.6 69.5Q219.6 71.5 219.4 73.2Q219.2 74.8 218.6 75.9Q218 77.1 216.8 77.7Q215.6 78.3 213.7 78.3ZM222.3 78V74.2H226.8V78ZM235.5 78.2Q232.6 78.2 231.1 76.6Q229.5 75 229.5 72V62Q229.5 58.8 231 57.1Q232.5 55.5 235.5 55.5Q238.5 55.5 239.9 57.1Q241.4 58.8 241.4 62V72Q241.4 75 239.8 76.6Q238.3 78.2 235.5 78.2ZM235.5 74.1Q236 74.1 236.3 73.6Q236.6 73.2 236.6 72.6V61.5Q236.6 60.7 236.4 60.2Q236.2 59.6 235.5 59.6Q234.7 59.6 234.5 60.2Q234.3 60.7 234.3 61.5V72.6Q234.3 73.2 234.6 73.6Q234.9 74.1 235.5 74.1ZM244.1 78V74.2H248.6V78ZM253.9 78V60.8Q253.4 61.3 252.6 61.7Q251.8 62 251.1 62V58.4Q251.8 58.3 252.6 58Q253.4 57.7 254 57.1Q254.7 56.5 255 55.6H258.6V78Z"/><path fill="#0a0a0a" d="M72.7 230.8Q60.7 230.8 55.4 224.8Q50.1 218.8 50.1 205.8V197.2H67.4V208.2Q67.4 211.2 68.3 212.9Q69.3 214.7 71.6 214.7Q73.9 214.7 74.9 213.3Q75.8 211.9 75.8 208.7Q75.8 204.6 75 201.9Q74.2 199.2 72.2 196.8Q70.3 194.3 66.8 191L58.9 183.5Q50.1 175.2 50.1 164.5Q50.1 153.3 55.3 147.4Q60.5 141.5 70.4 141.5Q82.4 141.5 87.5 148Q92.5 154.4 92.5 167.5H74.7V161.5Q74.7 159.7 73.7 158.7Q72.7 157.7 70.9 157.7Q68.8 157.7 67.8 158.9Q66.9 160 66.9 161.9Q66.9 163.7 67.9 165.9Q68.9 168 71.8 170.8L81.9 180.5Q85 183.4 87.5 186.6Q90 189.8 91.6 194.1Q93.1 198.3 93.1 204.5Q93.1 216.8 88.6 223.8Q84 230.8 72.7 230.8ZM100 230V142.3H135V159.3H117.8V176.4H134.3V192.8H117.8V212.9H136.2V230ZM142.9 230V142.3H161L169 184.3V142.3H186V230H168.8L160.1 186.2V230ZM202.3 230V159.2H191.8V142.3H230.2V159.2H219.8V230ZM235.3 230V142.3H252.2V230ZM260.2 230V142.3H278.2L286.3 184.3V142.3H303.2V230H286.1L277.3 186.2V230ZM312 230V142.3H347.1V159.3H329.8V176.4H346.4V192.8H329.8V212.9H348.2V230ZM355 230V142.3H372.5V215.1H390.5V230ZM396.5 230V142.3H431.6V159.4H414.1V173.4H430.7V190.3H414.1V230ZM438.2 230V142.3H455.7V215.1H473.8V230ZM500.7 230.8Q490.2 230.8 484.6 224.4Q479 218.1 479 206.1V164.5Q479 153.2 484.6 147.4Q490.1 141.5 500.7 141.5Q511.3 141.5 516.8 147.4Q522.3 153.2 522.3 164.5V206.1Q522.3 218.1 516.7 224.4Q511.2 230.8 500.7 230.8ZM500.8 214.7Q504.8 214.7 504.8 206.9V164.2Q504.8 157.7 500.9 157.7Q496.5 157.7 496.5 164.3V207Q496.5 211.1 497.5 212.9Q498.5 214.7 500.8 214.7ZM537.2 230 527.8 142.3H544.9L549.8 197.7L554.7 142.3H571L575.7 197.7L580.4 142.3H597.7L588.2 230H567.2L562.8 187.8L558.6 230Z"/><path fill="#0a0a0a" d="M48.4 292 50.9 266.2H59.7L62.1 292H57.2L56.9 287.8H53.8L53.4 292ZM54.1 283.7H56.5L55.4 270.6H55.1ZM64.5 292V266.2H69.4V292ZM85.8 292.2Q80.3 292.2 80.3 284.3V273.2Q80.3 266 86.7 266Q89.3 266 90.7 267Q92 268.1 92.6 270.1Q93.1 272.1 93.1 275H88.1V272.7Q88.1 271.9 87.8 271.3Q87.6 270.7 86.9 270.7Q86 270.7 85.7 271.3Q85.4 271.9 85.4 272.6V285.1Q85.4 286.2 85.7 286.8Q86 287.5 86.8 287.5Q87.6 287.5 87.8 286.8Q88.1 286.2 88.1 285.1V281.4H86.7V277H93V292H91L90.1 289.8Q88.7 292.2 85.8 292.2ZM95.4 292 97.9 266.2H106.6L109.1 292H104.2L103.8 287.8H100.7L100.4 292ZM101.1 283.7H103.4L102.3 270.6H102.1ZM113.8 292V271.2H110.8V266.2H122.1V271.2H119V292ZM124.5 292V266.2H134.8V271.2H129.7V276.2H134.6V281.1H129.7V287H135.2V292ZM139.9 292 137.1 266.2H142.1L143.6 282.5L145 266.2H149.8L151.2 282.5L152.6 266.2H157.7L154.9 292H148.7L147.4 279.6L146.2 292ZM159.5 292 162 266.2H170.7L173.2 292H168.3L167.9 287.8H164.8L164.5 292ZM165.2 283.7H167.5L166.4 270.6H166.2ZM178.9 292V283.5L174.8 266.2H179.9L181.3 274.9L182.8 266.2H187.9L183.8 283.5V292ZM197.5 292 200 266.2H208.7L211.2 292H206.3L205.9 287.8H202.8L202.5 292ZM203.2 283.7H205.5L204.4 270.6H204.2ZM213.8 292V266.2H219.1L221.4 278.6V266.2H226.4V292H221.4L218.8 279.1V292ZM229.7 292V266.2H236.8Q239.6 266.2 241 267.8Q242.4 269.3 242.4 272.3V284.4Q242.4 288 241.1 290Q239.8 292 236.6 292ZM234.9 287.4H235.8Q237.2 287.4 237.2 286.1V272.8Q237.2 271.5 236.8 271.1Q236.5 270.7 235.4 270.7H234.9ZM259.5 292.2Q256.7 292.2 255 290.5Q253.3 288.7 253.3 285.6V273.7Q253.3 270 254.8 268Q256.3 266 259.6 266Q261.5 266 262.9 266.7Q264.3 267.3 265.1 268.7Q266 270 266 272V276.5H260.8V272.7Q260.8 271.5 260.5 271.1Q260.3 270.7 259.6 270.7Q258.9 270.7 258.7 271.3Q258.4 271.8 258.4 272.6V285.5Q258.4 286.6 258.7 287Q259.1 287.5 259.6 287.5Q260.3 287.5 260.6 286.9Q260.8 286.4 260.8 285.5V280.9H266V285.8Q266 289.2 264.3 290.7Q262.6 292.2 259.5 292.2ZM274.9 292.2Q271.8 292.2 270.2 290.4Q268.5 288.5 268.5 285V272.7Q268.5 269.4 270.2 267.7Q271.8 266 274.9 266Q278 266 279.6 267.7Q281.3 269.4 281.3 272.7V285Q281.3 288.5 279.6 290.4Q278 292.2 274.9 292.2ZM274.9 287.5Q276.1 287.5 276.1 285.2V272.6Q276.1 270.7 275 270.7Q273.7 270.7 273.7 272.7V285.2Q273.7 286.4 274 287Q274.3 287.5 274.9 287.5ZM284.3 292V266.2H289.6L292 278.6V266.2H297V292H291.9L289.4 279.1V292ZM302.5 292V271.2H299.4V266.2H310.7V271.2H307.6V292ZM313.1 292V266.2H321Q323 266.2 324 267.1Q325 268 325.4 269.6Q325.7 271.3 325.7 273.4Q325.7 275.5 325.2 276.8Q324.7 278.1 323.2 278.6Q324.4 278.8 324.9 279.8Q325.4 280.7 325.4 282.2V292H320.3V281.9Q320.3 280.8 319.8 280.5Q319.4 280.2 318.4 280.2V292ZM318.4 275.8H319.6Q320.7 275.8 320.7 273.4Q320.7 271.9 320.5 271.5Q320.2 271 319.6 271H318.4ZM334.6 292.2Q331.5 292.2 329.9 290.4Q328.2 288.5 328.2 285V272.7Q328.2 269.4 329.8 267.7Q331.5 266 334.6 266Q337.7 266 339.3 267.7Q340.9 269.4 340.9 272.7V285Q340.9 288.5 339.3 290.4Q337.7 292.2 334.6 292.2ZM334.6 287.5Q335.8 287.5 335.8 285.2V272.6Q335.8 270.7 334.7 270.7Q333.4 270.7 333.4 272.7V285.2Q333.4 286.4 333.7 287Q334 287.5 334.6 287.5ZM344 292V266.2H349.2V287.6H354.5V292ZM365 292V266.2H371.8Q373.9 266.2 375.2 267.2Q376.4 268.1 377 269.9Q377.5 271.6 377.5 274.1Q377.5 276.4 377.1 278.1Q376.6 279.9 375.4 280.8Q374.3 281.8 372.1 281.8H370V292ZM370 277.2H370.3Q371.8 277.2 372.1 276.4Q372.4 275.5 372.4 274Q372.4 272.5 372.1 271.7Q371.8 270.9 370.6 270.9H370ZM380.1 292V266.2H385.3V287.6H390.6V292ZM392.4 292 394.9 266.2H403.6L406 292H401.2L400.8 287.8H397.7L397.4 292ZM398.1 283.7H400.4L399.3 270.6H399ZM408.6 292V266.2H413.9L416.3 278.6V266.2H421.3V292H416.2L413.7 279.1V292ZM424.6 292V266.2H434.9V271.2H429.8V276.2H434.7V281.1H429.8V287H435.2V292ZM446 292V266.2H456.3V271.2H451.1V275.3H456V280.3H451.1V292ZM465.1 292.2Q462 292.2 460.3 290.4Q458.7 288.5 458.7 285V272.7Q458.7 269.4 460.3 267.7Q462 266 465.1 266Q468.2 266 469.8 267.7Q471.4 269.4 471.4 272.7V285Q471.4 288.5 469.8 290.4Q468.2 292.2 465.1 292.2ZM465.1 287.5Q466.3 287.5 466.3 285.2V272.6Q466.3 270.7 465.1 270.7Q463.9 270.7 463.9 272.7V285.2Q463.9 286.4 464.1 287Q464.4 287.5 465.1 287.5ZM474.5 292V266.2H482.4Q484.4 266.2 485.4 267.1Q486.4 268 486.8 269.6Q487.1 271.3 487.1 273.4Q487.1 275.5 486.6 276.8Q486 278.1 484.6 278.6Q485.8 278.8 486.3 279.8Q486.8 280.7 486.8 282.2V292H481.7V281.9Q481.7 280.8 481.2 280.5Q480.7 280.2 479.7 280.2V292ZM479.8 275.8H481Q482.1 275.8 482.1 273.4Q482.1 271.9 481.8 271.5Q481.6 271 481 271H479.8ZM497.8 292V266.2H503V287.6H508.3V292ZM510.8 292V266.2H515.9V287.6H521.2V292ZM523.7 292V266.2H531.5L533.7 281.9L535.9 266.2H543.8V292H539.1V273.4L536.1 292H531.5L528.3 273.4V292ZM553.2 292.2Q549.7 292.2 548.1 290.5Q546.5 288.7 546.5 284.9V282.4H551.6V285.6Q551.6 286.5 551.9 287Q552.2 287.5 552.9 287.5Q553.6 287.5 553.8 287.1Q554.1 286.7 554.1 285.7Q554.1 284.5 553.9 283.7Q553.6 282.9 553.1 282.2Q552.5 281.5 551.4 280.5L549.1 278.3Q546.5 275.9 546.5 272.7Q546.5 269.4 548.1 267.7Q549.6 266 552.5 266Q556 266 557.5 267.9Q559 269.8 559 273.6H553.8V271.8Q553.8 271.3 553.5 271Q553.2 270.7 552.7 270.7Q552 270.7 551.8 271.1Q551.5 271.4 551.5 272Q551.5 272.5 551.8 273.1Q552.1 273.8 552.9 274.6L555.9 277.4Q556.8 278.3 557.5 279.2Q558.3 280.2 558.7 281.4Q559.2 282.7 559.2 284.5Q559.2 288.1 557.9 290.2Q556.5 292.2 553.2 292.2Z"/><rect x="660" y="28" width="572" height="404" rx="22" fill="#e7e7de" stroke="#cfcfc4" stroke-width="2"/><g clip-path="url(#p)"><g transform="translate(660 28)"><path d="M144,122 L215,166" stroke="#cfcfc4" stroke-width="2" fill="none"/><path d="M144,202 L215,202" stroke="#cfcfc4" stroke-width="2" fill="none"/><path d="M144,282 L215,238" stroke="#cfcfc4" stroke-width="2" fill="none"/><path d="M357,166 L428,122" stroke="#cfcfc4" stroke-width="2" fill="none"/><path d="M357,202 L428,202" stroke="#cfcfc4" stroke-width="2" fill="none"/><path d="M357,238 L428,282" stroke="#cfcfc4" stroke-width="2" fill="none"/><rect x="24" y="98" width="120" height="48" rx="14" fill="#f1f1ea" stroke="#0a0a0a" stroke-width="2"/><path fill="#0a0a0a" d="M64.3 133.2 66.5 110.8H74L76.2 133.2H71.9L71.6 129.6H68.9L68.6 133.2ZM69.2 126H71.3L70.3 114.6H70.1ZM78.5 133.2V110.8H84.4Q86.3 110.8 87.4 111.7Q88.5 112.5 88.9 114Q89.4 115.5 89.4 117.6Q89.4 119.7 89 121.2Q88.6 122.7 87.6 123.5Q86.6 124.3 84.7 124.3H82.9V133.2ZM82.9 120.3H83.2Q84.4 120.3 84.7 119.6Q85 118.9 85 117.6Q85 116.3 84.7 115.6Q84.4 114.9 83.4 114.9H82.9ZM91.8 133.2V110.8H97.7Q99.6 110.8 100.6 111.7Q101.7 112.5 102.2 114Q102.7 115.5 102.7 117.6Q102.7 119.7 102.3 121.2Q101.9 122.7 100.9 123.5Q99.9 124.3 98 124.3H96.2V133.2ZM96.2 120.3H96.4Q97.7 120.3 98 119.6Q98.2 118.9 98.2 117.6Q98.2 116.3 98 115.6Q97.7 114.9 96.7 114.9H96.2Z"/><rect x="24" y="178" width="120" height="48" rx="14" fill="#f1f1ea" stroke="#0a0a0a" stroke-width="2"/><path fill="#0a0a0a" d="M52.3 213.2 54.5 190.8H62L64.2 213.2H59.9L59.6 209.6H56.9L56.6 213.2ZM57.2 206H59.3L58.3 194.6H58.1ZM71.1 213.4Q66.4 213.4 66.4 206.5V196.9Q66.4 190.6 71.8 190.6Q74.1 190.6 75.3 191.5Q76.5 192.4 77 194.2Q77.4 195.9 77.4 198.4H73.1V196.4Q73.1 195.7 72.9 195.2Q72.7 194.7 72 194.7Q71.3 194.7 71 195.3Q70.8 195.8 70.8 196.4V207.2Q70.8 208.1 71 208.7Q71.2 209.3 71.9 209.3Q72.6 209.3 72.9 208.7Q73.1 208.1 73.1 207.2V204H71.9V200.2H77.4V213.2H75.6L74.8 211.3Q73.7 213.4 71.1 213.4ZM80.1 213.2V190.8H89.1V195.1H84.7V199.5H88.9V203.7H84.7V208.8H89.4V213.2ZM91.8 213.2V190.8H96.4L98.5 201.5V190.8H102.8V213.2H98.4L96.2 202V213.2ZM107.7 213.2V195.1H105.1V190.8H114.8V195.1H112.2V213.2Z"/><rect x="24" y="258" width="120" height="48" rx="14" fill="#f1f1ea" stroke="#0a0a0a" stroke-width="2"/><path fill="#0a0a0a" d="M58.4 293.2V275.1H55.8V270.8H65.5V275.1H62.9V293.2ZM67.8 293.2V270.8H76.7V275.1H72.3V279.5H76.5V283.7H72.3V288.8H77V293.2ZM78.9 293.2 81 270.8H88.6L90.7 293.2H86.5L86.2 289.6H83.5L83.2 293.2ZM83.8 286H85.8L84.9 274.6H84.7ZM93.1 293.2V270.8H99.9L101.8 284.5L103.6 270.8H110.5V293.2H106.4V277.1L103.9 293.2H99.8L97.1 277.1V293.2Z"/><rect x="428" y="98" width="120" height="48" rx="14" fill="#f1f1ea" stroke="#0a0a0a" stroke-width="2"/><path fill="#0a0a0a" d="M457.8 133.4Q455.1 133.4 453.7 131.8Q452.3 130.1 452.3 127.1V116.5Q452.3 113.6 453.7 112.1Q455.1 110.6 457.8 110.6Q460.5 110.6 461.9 112.1Q463.3 113.6 463.3 116.5V127.1Q463.3 130.1 461.9 131.8Q460.5 133.4 457.8 133.4ZM457.8 129.3Q458.8 129.3 458.8 127.3V116.4Q458.8 114.7 457.8 114.7Q456.7 114.7 456.7 116.4V127.3Q456.7 128.4 457 128.8Q457.2 129.3 457.8 129.3ZM466.1 133.2V110.8H472Q473.9 110.8 474.9 111.7Q476 112.5 476.5 114Q477 115.5 477 117.6Q477 119.7 476.6 121.2Q476.2 122.7 475.2 123.5Q474.2 124.3 472.3 124.3H470.5V133.2ZM470.5 120.3H470.7Q472 120.3 472.3 119.6Q472.5 118.9 472.5 117.6Q472.5 116.3 472.3 115.6Q472 114.9 471 114.9H470.5ZM479.4 133.2V110.8H488.3V115.1H483.9V119.5H488.1V123.7H483.9V128.8H488.6V133.2ZM491.1 133.2V110.8H495.7L497.7 121.5V110.8H502V133.2H497.7L495.4 122V133.2ZM504.4 133.2 506.6 110.8H514.1L516.3 133.2H512L511.7 129.6H509L508.8 133.2ZM509.4 126H511.4L510.4 114.6H510.2ZM518.4 133.2V110.8H522.8V133.2Z"/><rect x="428" y="178" width="120" height="48" rx="14" fill="#f1f1ea" stroke="#0a0a0a" stroke-width="2"/><path fill="#0a0a0a" d="M435.7 212.3 437.7 191.7H444.7L446.6 212.3H442.7L442.4 209H440L439.7 212.3ZM440.2 205.7H442.1L441.2 195.2H441ZM448.9 212.3V191.7H453.1L455 201.6V191.7H459V212.3H455L452.9 202V212.3ZM463.6 212.3V195.6H461.2V191.7H470.2V195.6H467.7V212.3ZM472.3 212.3V191.7H476.4V199.1H478.4V191.7H482.5V212.3H478.4V203H476.4V212.3ZM485.3 212.3V191.7H491.6Q493.2 191.7 494 192.4Q494.8 193.1 495.1 194.4Q495.4 195.7 495.4 197.5Q495.4 199.2 495 200.2Q494.5 201.2 493.4 201.6Q494.3 201.8 494.7 202.5Q495.1 203.3 495.1 204.5V212.3H491.1V204.2Q491.1 203.3 490.7 203.1Q490.3 202.9 489.5 202.9V212.3ZM489.5 199.3H490.5Q491.4 199.3 491.4 197.5Q491.4 196.3 491.2 195.9Q491 195.5 490.5 195.5H489.5ZM502.7 212.5Q500.2 212.5 498.9 211Q497.6 209.5 497.6 206.7V196.9Q497.6 194.2 498.9 192.9Q500.2 191.5 502.7 191.5Q505.2 191.5 506.5 192.9Q507.8 194.2 507.8 196.9V206.7Q507.8 209.5 506.5 211Q505.2 212.5 502.7 212.5ZM502.7 208.7Q503.7 208.7 503.7 206.9V196.8Q503.7 195.3 502.7 195.3Q501.7 195.3 501.7 196.9V206.9Q501.7 207.9 501.9 208.3Q502.2 208.7 502.7 208.7ZM510.4 212.3V191.7H515.9Q517.6 191.7 518.6 192.4Q519.6 193.2 520 194.6Q520.5 196 520.5 198Q520.5 199.8 520.1 201.2Q519.7 202.6 518.8 203.4Q517.9 204.1 516.2 204.1H514.5V212.3ZM514.5 200.4H514.7Q515.9 200.4 516.1 199.8Q516.4 199.2 516.4 197.9Q516.4 196.7 516.1 196.1Q515.9 195.4 514.9 195.4H514.5ZM522.6 212.3V191.7H526.6V212.3ZM534 212.5Q531.8 212.5 530.4 211.1Q529 209.7 529 207.2V197.7Q529 194.7 530.2 193.1Q531.4 191.5 534.1 191.5Q535.6 191.5 536.7 192Q537.8 192.6 538.5 193.7Q539.2 194.7 539.2 196.4V199.9H535.1V196.9Q535.1 195.9 534.8 195.6Q534.6 195.3 534.1 195.3Q533.5 195.3 533.3 195.7Q533.1 196.1 533.1 196.8V207.1Q533.1 208 533.4 208.4Q533.6 208.7 534.1 208.7Q534.6 208.7 534.8 208.3Q535.1 207.8 535.1 207.1V203.4H539.2V207.3Q539.2 210.1 537.8 211.3Q536.5 212.5 534 212.5Z"/><rect x="428" y="258" width="120" height="48" rx="14" fill="#f1f1ea" stroke="#0a0a0a" stroke-width="2"/><path fill="#0a0a0a" d="M455.8 293.4Q453.1 293.4 451.7 291.8Q450.3 290.1 450.3 287.1V276.5Q450.3 273.6 451.7 272.1Q453.1 270.6 455.8 270.6Q458.5 270.6 459.9 272.1Q461.3 273.6 461.3 276.5V287.1Q461.3 290.1 459.9 291.8Q458.5 293.4 455.8 293.4ZM455.9 289.3Q456.9 289.3 456.9 287.3V276.4Q456.9 274.7 455.9 274.7Q454.8 274.7 454.8 276.4V287.3Q454.8 288.4 455 288.8Q455.3 289.3 455.9 289.3ZM466.1 293.2V275.1H463.4V270.8H473.2V275.1H470.5V293.2ZM475.4 293.2V270.8H479.9V278.8H482V270.8H486.4V293.2H482V283H479.9V293.2ZM489.4 293.2V270.8H498.3V275.1H493.9V279.5H498.2V283.7H493.9V288.8H498.6V293.2ZM501.1 293.2V270.8H508Q509.7 270.8 510.5 271.6Q511.4 272.4 511.7 273.8Q512 275.2 512 277.1Q512 278.9 511.6 280Q511.1 281.1 509.8 281.5Q510.9 281.7 511.3 282.6Q511.7 283.4 511.7 284.7V293.2H507.3V284.4Q507.3 283.4 506.9 283.2Q506.5 283 505.6 283V293.2ZM505.6 279.1H506.7Q507.6 279.1 507.6 277.1Q507.6 275.8 507.4 275.4Q507.2 275 506.7 275H505.6ZM519.8 293.4Q516.7 293.4 515.4 291.9Q514 290.3 514 287V284.8H518.5V287.6Q518.5 288.4 518.7 288.8Q518.9 289.3 519.5 289.3Q520.1 289.3 520.3 288.9Q520.6 288.6 520.6 287.7Q520.6 286.7 520.4 286Q520.2 285.3 519.7 284.7Q519.2 284.1 518.3 283.2L516.3 281.3Q514 279.2 514 276.5Q514 273.6 515.4 272.1Q516.7 270.6 519.2 270.6Q522.3 270.6 523.6 272.3Q524.8 273.9 524.8 277.2H520.3V275.7Q520.3 275.2 520 275Q519.8 274.7 519.3 274.7Q518.8 274.7 518.6 275Q518.3 275.3 518.3 275.8Q518.3 276.3 518.6 276.8Q518.8 277.4 519.6 278.1L522.1 280.6Q522.9 281.3 523.6 282.1Q524.2 282.9 524.6 284Q525 285.1 525 286.7Q525 289.8 523.8 291.6Q522.7 293.4 519.8 293.4Z"/><rect x="215" y="132" width="142" height="140" rx="18" fill="#0a0a0a"/><path fill="#d6ff1f" d="M234.1 196.3Q230.1 196.3 228.4 194.3Q226.6 192.3 226.6 187.9V185.1H232.4V188.7Q232.4 189.7 232.7 190.3Q233 190.9 233.7 190.9Q234.5 190.9 234.9 190.4Q235.2 190 235.2 188.9Q235.2 187.5 234.9 186.6Q234.6 185.7 234 184.9Q233.3 184.1 232.2 183L229.5 180.5Q226.6 177.7 226.6 174.2Q226.6 170.4 228.3 168.5Q230.1 166.5 233.3 166.5Q237.4 166.5 239.1 168.7Q240.7 170.8 240.7 175.2H234.8V173.2Q234.8 172.6 234.5 172.2Q234.1 171.9 233.5 171.9Q232.8 171.9 232.5 172.3Q232.2 172.7 232.2 173.3Q232.2 173.9 232.5 174.6Q232.9 175.3 233.8 176.3L237.2 179.5Q238.2 180.5 239.1 181.5Q239.9 182.6 240.4 184Q240.9 185.4 240.9 187.5Q240.9 191.6 239.4 193.9Q237.9 196.3 234.1 196.3ZM243.9 196V166.8H255.6V172.4H249.8V178.1H255.3V183.6H249.8V190.3H255.9V196ZM258.9 196V166.8H264.9L267.6 180.8V166.8H273.2V196H267.5L264.6 181.4V196ZM279.3 196V172.4H275.8V166.8H288.6V172.4H285.2V196ZM291 196V166.8H296.6V196ZM300 196V166.8H306L308.7 180.8V166.8H314.3V196H308.6L305.7 181.4V196ZM317.9 196V166.8H329.6V172.4H323.8V178.1H329.3V183.6H323.8V190.3H330V196ZM332.9 196V166.8H338.7V191H344.7V196Z"/><path fill="#d6ff1f" d="M251.4 238V208.8H263.1V214.5H257.3V219.1H262.8V224.8H257.3V238ZM265.9 238V208.8H271.8V233H277.8V238ZM287.4 238.3Q283.9 238.3 282.1 236.1Q280.2 234 280.2 230V216.2Q280.2 212.4 282.1 210.5Q283.9 208.5 287.4 208.5Q291 208.5 292.8 210.5Q294.6 212.4 294.6 216.2V230Q294.6 234 292.8 236.1Q290.9 238.3 287.4 238.3ZM287.5 232.9Q288.8 232.9 288.8 230.3V216.1Q288.8 213.9 287.5 213.9Q286.1 213.9 286.1 216.1V230.3Q286.1 231.7 286.4 232.3Q286.7 232.9 287.5 232.9ZM300.3 238 297.2 208.8H302.9L304.5 227.2L306.1 208.8H311.6L313.1 227.2L314.7 208.8H320.5L317.3 238H310.3L308.8 223.9L307.4 238Z"/><circle r="5" fill="#0a0a0a"><animateMotion dur="2.4s" begin="0.0s" repeatCount="indefinite" path="M144,122 L215,166"/></circle><circle r="5" fill="#0a0a0a"><animateMotion dur="2.4s" begin="0.8s" repeatCount="indefinite" path="M144,202 L215,202"/></circle><circle r="5" fill="#0a0a0a"><animateMotion dur="2.4s" begin="1.6s" repeatCount="indefinite" path="M144,282 L215,238"/></circle><circle r="5" fill="#0a0a0a"><animateMotion dur="2.4s" begin="0.6s" repeatCount="indefinite" path="M357,166 L428,122"/></circle><circle r="5" fill="#0a0a0a"><animateMotion dur="2.4s" begin="1.4s" repeatCount="indefinite" path="M357,202 L428,202"/></circle><circle r="5" fill="#0a0a0a"><animateMotion dur="2.4s" begin="2.2s" repeatCount="indefinite" path="M357,238 L428,282"/></circle></g></g></svg>